<?xml version="1.0" encoding="UTF-8"?>
<!DOCTYPE svg  PUBLIC '-//W3C//DTD SVG 1.1//EN'  'http://www.w3.org/Graphics/SVG/1.1/DTD/svg11.dtd'>
<svg enable-background="new 0 0 65.2 47.4" version="1.1" viewBox="0 0 65.2 47.4" xml:space="preserve" xmlns="http://www.w3.org/2000/svg" xmlns:xlink="http://www.w3.org/1999/xlink">
<symbol id="a" viewBox="0 -47.4 47.75 47.4">
		<g clip-rule="evenodd" fill-rule="evenodd">
			<path d="m45.5-11.45c-0.367 0-0.683 0.15-0.95 0.45-0.233 0.267-0.316 0.617-0.25 1.05-0.4 0-0.7 0.15-0.9 0.45-0.233 0.267-0.316 0.617-0.25 1.05-0.333 0-0.633 0.15-0.9 0.45-0.233 0.267-0.317 0.6-0.25 1-0.4 0-0.7 0.15-0.9 0.45-0.233 0.333-0.3 0.7-0.2 1.1-0.367 0-0.683 0.15-0.95 0.45-0.233 0.233-0.317 0.567-0.25 1-0.4 0-0.717 0.167-0.95 0.5-0.2 0.267-0.267 0.6-0.2 1-0.333 0-0.633 0.15-0.9 0.45-0.3 0.4-0.367 0.816-0.2 1.25 0.2 0.1 0.417 0.2 0.65 0.3-0.333-0.533-0.3-1.05 0.1-1.55 0.233-0.333 0.533-0.5 0.9-0.5-0.1-0.333-0.017-0.667 0.25-1 0.233-0.333 0.55-0.5 0.95-0.5-0.1-0.367-0.017-0.717 0.25-1.05 0.267-0.3 0.567-0.45 0.9-0.45-0.1-0.367-0.017-0.733 0.25-1.1 0.2-0.3 0.5-0.45 0.9-0.45-0.067-0.4 0.017-0.733 0.25-1 0.267-0.367 0.566-0.517 0.9-0.45-0.067-0.467 0.017-0.833 0.25-1.1 0.233-0.3 0.55-0.45 0.95-0.45-0.067-0.433 0.017-0.783 0.25-1.05 0.1-0.133 0.2-0.233 0.3-0.3zm1.15-1.5c-0.367-0.033-0.667 0.117-0.9 0.45-0.267 0.333-0.35 0.667-0.25 1 0.167-0.1 0.367-0.15 0.6-0.15-0.067-0.4 0.017-0.733 0.25-1 0.1-0.133 0.2-0.233 0.3-0.3zm-37.35-33.05l0.05-0.1c0.9 0.4 1.833 0.55 2.8 0.45s1.85-0.45 2.65-1.05l31.7 27.8c-0.767 1.933-0.633 3.867 0.4 5.8 0.267-0.1 0.55-0.083 0.85 0.05-1.2-1.967-1.383-4-0.55-6.1l-32.2-28.25c-1.733 1.267-3.567 1.483-5.5 0.65l-0.05 0.05-0.15 0.7zm22.9 45.8l0.2 0.2c0.733-0.5 1.483-0.833 2.25-1-0.9 0.1-1.717 0.367-2.45 0.8zm-23.85-44.1c0.333-0.034 0.6-0.184 0.8-0.45 0.233-0.3 0.333-0.617 0.3-0.95l-0.2 0.35c-0.233 0.267-0.533 0.4-0.9 0.4 0.033 0.233 0.033 0.45 0 0.65zm-0.1 0.2c-0.033 0.067-0.083 0.133-0.15 0.2-0.233 0.3-0.533 0.45-0.9 0.45l-0.1 0.6-0.05 0.25-0.1 0.15c-0.233 0.3-0.533 0.45-0.9 0.45l-0.1 0.6c0.367 0 0.667-0.15 0.9-0.45 0.233-0.267 0.316-0.6 0.25-1 0.4-0.066 0.683-0.217 0.85-0.45 0.2-0.267 0.3-0.533 0.3-0.8zm-3.4 4.15v0.05l-0.2 0.4c-0.2 0.3-0.5 0.45-0.9 0.45l-0.05 0.55c0 0.133-0.067 0.283-0.2 0.45-0.233 0.3-0.533 0.45-0.9 0.45 0.066 0.2 0.066 0.383 0 0.55-0.033 0.167-0.117 0.333-0.25 0.5-0.233 0.3-0.533 0.45-0.9 0.45 0.033 0.167 0.033 0.333 0 0.5 0.367 0 0.667-0.133 0.9-0.4 0.2-0.367 0.283-0.717 0.25-1.05 0.333 0 0.617-0.15 0.85-0.45 0.233-0.267 0.316-0.6 0.25-1 0.367 0 0.667-0.15 0.9-0.45 0.233-0.267 0.317-0.6 0.25-1 0.333 0 0.617-0.15 0.85-0.45 0.2-0.2 0.3-0.5 0.3-0.9l-0.2 0.35c-0.233 0.267-0.517 0.4-0.85 0.4l-0.1 0.6zm-3.4 4.45c-0.067 0.133-0.15 0.267-0.25 0.4-0.367 0.4-0.75 0.55-1.15 0.45l-0.05 0.05v0.5l0.05-0.05c0.434 0.1 0.8-0.05 1.1-0.45 0.233-0.3 0.333-0.6 0.3-0.9zm-0.55 5c-0.066 0.6-0.217 1.2-0.45 1.8l0.1 0.05c0.2-0.567 0.317-1.183 0.35-1.85z" fill="#B2B9A3"/>
			<path d="m9.3-46c0.067 0.1 0.117 0.2 0.15 0.3 0.033 0.333-0.067 0.65-0.3 0.95-0.2 0.267-0.467 0.417-0.8 0.45h-0.15c0.033 0.066 0.05 0.133 0.05 0.2 0 0.267-0.1 0.533-0.3 0.8-0.167 0.233-0.45 0.383-0.85 0.45 0.066 0.4-0.017 0.733-0.25 1-0.233 0.3-0.533 0.45-0.9 0.45 0 0.033 0.017 0.066 0.05 0.1 0 0.4-0.1 0.7-0.3 0.9-0.233 0.3-0.517 0.45-0.85 0.45 0.066 0.4-0.017 0.733-0.25 1-0.233 0.3-0.533 0.45-0.9 0.45 0.066 0.4-0.017 0.733-0.25 1-0.233 0.3-0.517 0.45-0.85 0.45 0.033 0.333-0.05 0.683-0.25 1.05-0.233 0.267-0.533 0.4-0.9 0.4h-0.05c0 0.033 0.017 0.067 0.05 0.1 0.033 0.3-0.067 0.6-0.3 0.9-0.3 0.4-0.667 0.55-1.1 0.45l-0.05 0.05c0.5 0.867 0.783 1.833 0.85 2.9 0.033 0.233 0.05 0.467 0.05 0.7-0.033 0.667-0.15 1.283-0.35 1.85-0.067 0.133-0.117 0.25-0.15 0.35l31.5 28.3c0.1-0.067 0.2-0.133 0.3-0.2 0.733-0.433 1.55-0.7 2.45-0.8 1-0.1 1.967 0.067 2.9 0.5-0.033-0.1-0.066-0.2-0.1-0.3-0.167-0.434-0.1-0.85 0.2-1.25 0.267-0.3 0.567-0.45 0.9-0.45-0.066-0.4 0-0.733 0.2-1 0.233-0.333 0.55-0.5 0.95-0.5-0.067-0.433 0.017-0.767 0.25-1 0.267-0.3 0.583-0.45 0.95-0.45-0.1-0.4-0.033-0.767 0.2-1.1 0.2-0.3 0.5-0.45 0.9-0.45-0.067-0.4 0.017-0.733 0.25-1 0.267-0.3 0.567-0.45 0.9-0.45-0.066-0.433 0.017-0.783 0.25-1.05 0.2-0.3 0.5-0.45 0.9-0.45-0.066-0.433 0.017-0.783 0.25-1.05 0.267-0.3 0.583-0.45 0.95-0.45v-0.05c-0.1-0.333-0.017-0.667 0.25-1 0.233-0.333 0.533-0.483 0.9-0.45 0.133 0 0.267 0.034 0.4 0.1-0.033-0.066-0.083-0.15-0.15-0.25-1.033-1.933-1.167-3.867-0.4-5.8l-31.7-27.8c-0.8 0.6-1.683 0.95-2.65 1.05s-1.9-0.05-2.8-0.45l-0.05 0.1zm-1.3 7.15c1.267 2.133 3.633 4.8 7.1 8 1.733 1.567 3.983 3.217 6.75 4.95 1.2 0.8 2.917 1.9 5.15 3.3-0.433 0.367-0.833 0.783-1.2 1.25-1.333 1.7-1.9 3.667-1.7 5.9 0.167 2.2 1.05 4.034 2.65 5.5 1.633 1.434 3.483 2.05 5.55 1.85 2.1-0.2 3.817-1.167 5.15-2.9 0.267-0.367 0.517-0.733 0.75-1.1 0.066 0.167 0.133 0.333 0.2 0.5 0.4 1.067 0.684 1.983 0.85 2.75l4.35-5.65c-0.533-1.467-0.567-2.867-0.1-4.2l-28.35-24.85c-1.233 0.7-2.533 0.9-3.9 0.6l-3.25 4.1zm36.3 24.25l0.1 0.15-8.75 11.45-0.2-0.1c-1.367-0.367-2.633-0.167-3.8 0.6l-0.15 0.15-28.9-25.9 0.1-0.25c0.5-1.333 0.45-2.7-0.15-4.1l-0.1-0.2 8.6-10.95 0.2 0.05c1.4 0.434 2.65 0.233 3.75-0.6l0.2-0.1 29.05 25.45-0.1 0.25c-0.5 1.333-0.45 2.7 0.15 4.1zm-16-0.4l-0.25-2.45-1.45 1.8 1.25 1.15 0.45-0.5zm7.85 2.8c-1.066 1.333-2.4 2.083-4 2.25-1.633 0.133-3.05-0.35-4.25-1.45-1.233-1.1-1.933-2.517-2.1-4.25-0.167-1.7 0.267-3.2 1.3-4.5 1.066-1.333 2.4-2.083 4-2.25 0.433-0.033 0.85-0.033 1.25 0l-2.6 3.05-0.05-0.65c0-0.2-0.117-0.3-0.35-0.3l-0.8 0.05c-0.233 0-0.316 0.117-0.25 0.35l0.75 6.65 0.1 0.25 0.2 0.1 6.3-0.4c0.2 0 0.3-0.117 0.3-0.35l-0.15-0.85c0-0.2-0.1-0.3-0.3-0.3l-0.6 0.05 2.4-2.85c0.034 0.267 0.067 0.533 0.1 0.8 0.167 1.7-0.25 3.233-1.25 4.6zm-15.75-9.45l0.75-0.85 1 0.9c0.2 0.167 0.45 0.167 0.75 0 0.233-0.3 0.2-0.55-0.1-0.75l-1.4-1.3c-0.3-0.233-0.566-0.217-0.8 0.05l-2.65 3.1c-0.3 0.3-0.3 0.583 0 0.85l1.4 1.2c0.233 0.2 0.467 0.184 0.7-0.05 0.233-0.3 0.217-0.55-0.05-0.75l-0.95-0.8 0.65-0.85 0.95 0.8c0.233 0.233 0.483 0.217 0.75-0.05 0.233-0.233 0.2-0.483-0.1-0.75l-0.9-0.75zm6.25-2.95c0.233 0.233 0.233 0.467 0 0.7-0.233 0.3-0.483 0.316-0.75 0.05l-2.15-1.9c-0.267-0.267-0.267-0.517 0-0.75 0.2-0.267 0.433-0.283 0.7-0.05l0.65 0.55 2.65-2.85c0.267-0.3 0.55-0.333 0.85-0.1 0.3 0.267 0.3 0.55 0 0.85l-2.6 2.9 0.65 0.6zm8.5 4.7c-0.333-0.267-0.583-0.25-0.75 0.05-0.2 0.267-0.183 0.533 0.05 0.8 0.3 0.233 0.566 0.216 0.8-0.05 0.267-0.267 0.233-0.533-0.1-0.8zm-0.6-1.7c0.233 0.167 0.483 0.367 0.75 0.6 0.4 0.367 0.75 0.75 1.05 1.15l-2.2 2.55-1.9-1.75 2.3-2.55zm-19.7-3.05l1.7-2.55c0.2-0.3 0.167-0.566-0.1-0.8-0.3-0.233-0.55-0.217-0.75 0.05l-0.1 0.1-2.15 3.6c-0.067 0.1-0.1 0.233-0.1 0.4 0.033 0.167 0.117 0.317 0.25 0.45 0.3 0.267 0.617 0.3 0.95 0.1l2.55-1.6-1.25 2.75c-0.2 0.333-0.133 0.617 0.2 0.85 0.333 0.267 0.65 0.283 0.95 0.05l3.15-2.65 0.1-0.1c0.2-0.233 0.183-0.467-0.05-0.7-0.233-0.2-0.483-0.2-0.75 0l-2.3 2v-0.05l1.35-2.9c0.1-0.3 0.033-0.533-0.2-0.7-0.233-0.2-0.466-0.217-0.7-0.05l-2.7 1.75h-0.05zm5.2-4.35c-0.133-0.133-0.2-0.3-0.2-0.5l-0.05-2.8-1.1 1.2c-0.267 0.333-0.55 0.35-0.85 0.05-0.267-0.233-0.283-0.5-0.05-0.8l3.05-3.35c0.3-0.3 0.583-0.3 0.85 0 0.133 0.1 0.2 0.233 0.2 0.4s-0.05 0.3-0.15 0.4l-1.35 1.45 2.95-0.25c0.367-0.066 0.6-0.017 0.7 0.15 0.267 0.233 0.3 0.5 0.1 0.8-0.1 0.133-0.316 0.2-0.65 0.2l-2.6 0.2 0.1 2.05c0.033 0.333 0 0.583-0.1 0.75-0.267 0.233-0.55 0.25-0.85 0.05zm-7.75 3.45c0.667-0.067 1.25-0.383 1.75-0.95s0.75-1.217 0.75-1.95c0-0.667-0.283-1.267-0.85-1.8-0.567-0.5-1.2-0.7-1.9-0.6-0.7 0.067-1.316 0.4-1.85 1-0.467 0.6-0.7 1.233-0.7 1.9 0.033 0.733 0.317 1.333 0.85 1.8 0.567 0.5 1.217 0.7 1.95 0.6zm-1.2-3.5c0.333-0.367 0.683-0.6 1.05-0.7 0.4-0.1 0.767 0 1.1 0.3 0.7 0.6 0.683 1.333-0.05 2.2-0.767 0.833-1.483 0.95-2.15 0.35-0.333-0.3-0.483-0.667-0.45-1.1 0.033-0.4 0.2-0.75 0.5-1.05zm-0.7-3.4l-1 1.25-1.75-1.55 1.05-1.2c0.267-0.3 0.25-0.566-0.05-0.8-0.267-0.233-0.533-0.217-0.8 0.05l-2.7 3.2c-0.267 0.267-0.25 0.517 0.05 0.75 0.233 0.233 0.483 0.217 0.75-0.05l1.05-1.15 1.7 1.45-1.05 1.25c-0.233 0.267-0.217 0.517 0.05 0.75 0.3 0.233 0.566 0.2 0.8-0.1l2.75-3.1c0.233-0.3 0.233-0.566 0-0.8-0.3-0.3-0.583-0.283-0.85 0.05zm7.1 0c-0.333 0.434-0.933 0.267-1.8-0.5-0.6-0.5-0.9-1.133-0.9-1.9 0-0.7 0.284-1.367 0.85-2 0.567-0.6 1.2-0.933 1.9-1 0.767-0.1 1.45 0.117 2.05 0.65 0.8 0.833 1.017 1.45 0.65 1.85-0.267 0.267-0.5 0.283-0.7 0.05-0.167-0.4-0.417-0.75-0.75-1.05s-0.716-0.417-1.15-0.35c-0.4 0.067-0.75 0.284-1.05 0.65-0.367 0.367-0.567 0.75-0.6 1.15-0.033 0.433 0.117 0.816 0.45 1.15 0.333 0.267 0.683 0.467 1.05 0.6 0.3 0.167 0.3 0.4 0 0.7zm-3.7-3.1c-0.267 0.333-0.55 0.35-0.85 0.05-0.3-0.233-0.317-0.5-0.05-0.8l3-3.3c0.267-0.333 0.55-0.35 0.85-0.05 0.3 0.233 0.317 0.517 0.05 0.85l-3 3.25zm-1.1-0.9c-0.2 0.233-0.434 0.25-0.7 0.05l-2.15-1.95c-0.267-0.233-0.267-0.483 0-0.75 0.167-0.267 0.4-0.283 0.7-0.05l0.65 0.6 2.65-2.95c0.233-0.3 0.517-0.317 0.85-0.05 0.267 0.267 0.267 0.55 0 0.85l-2.6 2.9 0.55 0.55c0.3 0.267 0.317 0.533 0.05 0.8zm14.05 6.6c-0.267 0.267-0.533 0.283-0.8 0.05l-1.1-1-0.75 0.9 0.95 0.9c0.3 0.233 0.317 0.483 0.05 0.75-0.233 0.233-0.483 0.233-0.75 0l-1-0.85-0.75 0.85 1.05 0.9c0.233 0.233 0.25 0.5 0.05 0.8-0.267 0.233-0.534 0.25-0.8 0.05l-1.4-1.35c-0.4-0.267-0.4-0.55 0-0.85l2.85-3.2c0.233-0.333 0.517-0.35 0.85-0.05l1.5 1.35c0.267 0.233 0.283 0.483 0.05 0.75z" fill="#EAE9D5"/>
			<path d="m44.3-14.6c-0.6-1.4-0.65-2.767-0.15-4.1l0.1-0.25-29.05-25.45-0.2 0.1c-1.1 0.833-2.35 1.033-3.75 0.6l-0.2-0.05-8.6 10.95 0.1 0.2c0.6 1.4 0.65 2.767 0.15 4.1l-0.1 0.25 28.9 25.9 0.15-0.15c1.167-0.767 2.434-0.967 3.8-0.6l0.2 0.1 8.75-11.45-0.1-0.15zm-36.3-24.25l3.25-4.1c1.367 0.3 2.667 0.1 3.9-0.6l28.35 24.85c-0.467 1.333-0.433 2.733 0.1 4.2l-4.35 5.65-3.85 5c-1.433-0.333-2.717-0.117-3.85 0.65l-28.2-25.3c0.467-1.367 0.417-2.767-0.15-4.2l4.8-6.15z" fill="#5B6A5D"/>
			<path d="m8-38.85l-4.8 6.15c0.566 1.434 0.617 2.833 0.15 4.2l28.2 25.3c1.133-0.767 2.417-0.983 3.85-0.65l3.85-5c-0.167-0.767-0.45-1.683-0.85-2.75-0.066-0.167-0.133-0.333-0.2-0.5-0.233 0.367-0.483 0.733-0.75 1.1-1.333 1.733-3.05 2.7-5.15 2.9-2.066 0.2-3.917-0.417-5.55-1.85-1.6-1.466-2.483-3.3-2.65-5.5-0.2-2.233 0.367-4.2 1.7-5.9 0.367-0.467 0.767-0.883 1.2-1.25-2.233-1.4-3.95-2.5-5.15-3.3-2.767-1.733-5.017-3.383-6.75-4.95-3.467-3.2-5.833-5.867-7.1-8zm28.15 26.65c1-1.367 1.417-2.9 1.25-4.6-0.033-0.267-0.066-0.534-0.1-0.8l-2.4 2.85 0.6-0.05c0.2 0 0.3 0.1 0.3 0.3l0.15 0.85c0 0.233-0.1 0.35-0.3 0.35l-6.3 0.4-0.2-0.1-0.1-0.25-0.75-6.65c-0.066-0.233 0.017-0.35 0.25-0.35l0.8-0.05c0.233 0 0.35 0.1 0.35 0.3l0.05 0.65 2.6-3.05c-0.4-0.033-0.817-0.033-1.25 0-1.6 0.167-2.934 0.917-4 2.25-1.033 1.3-1.467 2.8-1.3 4.5 0.167 1.733 0.867 3.15 2.1 4.25 1.2 1.1 2.617 1.583 4.25 1.45 1.6-0.167 2.933-0.917 4-2.25zm-7.85-2.8l-0.45 0.5-1.25-1.15 1.45-1.8 0.25 2.45zm-7.9-6.65l0.9 0.75c0.3 0.267 0.333 0.517 0.1 0.75-0.267 0.267-0.517 0.283-0.75 0.05l-0.95-0.8-0.65 0.85 0.95 0.8c0.267 0.2 0.283 0.45 0.05 0.75-0.233 0.233-0.466 0.25-0.7 0.05l-1.4-1.2c-0.3-0.267-0.3-0.55 0-0.85l2.65-3.1c0.233-0.267 0.5-0.283 0.8-0.05l1.4 1.3c0.3 0.2 0.333 0.45 0.1 0.75-0.3 0.167-0.55 0.167-0.75 0l-1-0.9-0.75 0.85zm6.25-2.95l-0.65-0.6 2.6-2.9c0.3-0.3 0.3-0.583 0-0.85-0.3-0.233-0.583-0.2-0.85 0.1l-2.65 2.85-0.65-0.55c-0.267-0.233-0.5-0.217-0.7 0.05-0.267 0.233-0.267 0.483 0 0.75l2.15 1.9c0.267 0.267 0.517 0.25 0.75-0.05 0.233-0.233 0.233-0.467 0-0.7zm8.5 4.7c0.333 0.267 0.367 0.533 0.1 0.8-0.233 0.267-0.5 0.283-0.8 0.05-0.233-0.267-0.25-0.534-0.05-0.8 0.167-0.3 0.417-0.317 0.75-0.05zm-0.6-1.7l-2.3 2.55 1.9 1.75 2.2-2.55c-0.3-0.4-0.65-0.783-1.05-1.15-0.267-0.233-0.517-0.433-0.75-0.6zm-19.7-3.05h0.05l2.7-1.75c0.233-0.167 0.467-0.15 0.7 0.05 0.233 0.167 0.3 0.4 0.2 0.7l-1.35 2.9v0.05l2.3-2c0.267-0.2 0.517-0.2 0.75 0 0.233 0.233 0.25 0.467 0.05 0.7l-0.1 0.1-3.15 2.65c-0.3 0.233-0.617 0.217-0.95-0.05-0.333-0.233-0.4-0.517-0.2-0.85l1.25-2.75-2.55 1.6c-0.333 0.2-0.65 0.167-0.95-0.1-0.133-0.133-0.217-0.283-0.25-0.45 0-0.167 0.033-0.3 0.1-0.4l2.15-3.6 0.1-0.1c0.2-0.267 0.45-0.283 0.75-0.05 0.267 0.233 0.3 0.5 0.1 0.8l-1.7 2.55zm5.2-4.35c0.3 0.2 0.583 0.183 0.85-0.05 0.1-0.167 0.133-0.417 0.1-0.75l-0.1-2.05 2.6-0.2c0.333 0 0.55-0.067 0.65-0.2 0.2-0.3 0.167-0.567-0.1-0.8-0.1-0.167-0.333-0.217-0.7-0.15l-2.95 0.25 1.35-1.45c0.1-0.1 0.15-0.233 0.15-0.4s-0.066-0.3-0.2-0.4c-0.267-0.3-0.55-0.3-0.85 0l-3.05 3.35c-0.233 0.3-0.216 0.567 0.05 0.8 0.3 0.3 0.583 0.283 0.85-0.05l1.1-1.2 0.05 2.8c0 0.2 0.067 0.367 0.2 0.5zm-9.65-3.45c0.267-0.333 0.55-0.35 0.85-0.05 0.233 0.233 0.233 0.5 0 0.8l-2.75 3.1c-0.233 0.3-0.5 0.333-0.8 0.1-0.267-0.233-0.284-0.483-0.05-0.75l1.05-1.25-1.7-1.45-1.05 1.15c-0.267 0.267-0.517 0.283-0.75 0.05-0.3-0.233-0.317-0.483-0.05-0.75l2.7-3.2c0.267-0.267 0.533-0.283 0.8-0.05 0.3 0.233 0.317 0.5 0.05 0.8l-1.05 1.2 1.75 1.55 1-1.25zm0.7 3.4c-0.3 0.3-0.467 0.65-0.5 1.05-0.033 0.433 0.117 0.8 0.45 1.1 0.667 0.6 1.383 0.483 2.15-0.35 0.733-0.867 0.75-1.6 0.05-2.2-0.333-0.3-0.7-0.4-1.1-0.3-0.367 0.1-0.717 0.333-1.05 0.7zm1.2 3.5c-0.733 0.1-1.383-0.1-1.95-0.6-0.533-0.467-0.817-1.067-0.85-1.8 0-0.667 0.233-1.3 0.7-1.9 0.533-0.6 1.15-0.933 1.85-1 0.7-0.1 1.333 0.1 1.9 0.6 0.566 0.533 0.85 1.133 0.85 1.8 0 0.733-0.25 1.383-0.75 1.95s-1.083 0.883-1.75 0.95zm0.4-10.9c0.267-0.267 0.25-0.533-0.05-0.8l-0.55-0.55 2.6-2.9c0.267-0.3 0.267-0.583 0-0.85-0.333-0.267-0.617-0.25-0.85 0.05l-2.65 2.95-0.65-0.6c-0.3-0.233-0.533-0.217-0.7 0.05-0.267 0.267-0.267 0.517 0 0.75l2.15 1.95c0.267 0.2 0.5 0.183 0.7-0.05zm1.1 0.9l3-3.25c0.267-0.333 0.25-0.617-0.05-0.85-0.3-0.3-0.583-0.283-0.85 0.05l-3 3.3c-0.267 0.3-0.25 0.566 0.05 0.8 0.3 0.3 0.583 0.283 0.85-0.05zm3.7 3.1c0.3-0.3 0.3-0.533 0-0.7-0.367-0.133-0.717-0.333-1.05-0.6-0.333-0.333-0.483-0.717-0.45-1.15 0.033-0.4 0.233-0.783 0.6-1.15 0.3-0.367 0.65-0.583 1.05-0.65 0.434-0.066 0.817 0.05 1.15 0.35s0.583 0.65 0.75 1.05c0.2 0.233 0.434 0.216 0.7-0.05 0.367-0.4 0.15-1.017-0.65-1.85-0.6-0.533-1.283-0.75-2.05-0.65-0.7 0.067-1.333 0.4-1.9 1-0.566 0.633-0.85 1.3-0.85 2 0 0.767 0.3 1.4 0.9 1.9 0.867 0.767 1.467 0.933 1.8 0.5zm9.25 2.6c0.233-0.267 0.217-0.517-0.05-0.75l-1.5-1.35c-0.333-0.3-0.617-0.283-0.85 0.05l-2.85 3.2c-0.4 0.3-0.4 0.583 0 0.85l1.4 1.35c0.267 0.2 0.533 0.183 0.8-0.05 0.2-0.3 0.183-0.567-0.05-0.8l-1.05-0.9 0.75-0.85 1 0.85c0.267 0.233 0.517 0.233 0.75 0 0.267-0.267 0.25-0.517-0.05-0.75l-0.95-0.9 0.75-0.9 1.1 1c0.267 0.233 0.533 0.217 0.8-0.05z" fill="#84B5B5"/>
		</g>
</symbol>
		<use transform="matrix(1 0 0 -1 .0498 .1001)" y="-47.4" width="47.75" height="47.4" xlink:href="#a"/>
</svg>
